<svg xmlns="http://www.w3.org/2000/svg" viewBox="0 0 1000 1000">
    <path stroke="#8c001a" fill="#8c001a" d="M852.8 356.3H515.4c-9 0-16.3 7.3-16.3 16.3v372.1c0 9 7.3 16.3 16.3 16.3h337.4c9 0 16.3-7.3 16.3-16.3V372.6c0-9-7.3-16.3-16.3-16.3zM749.9 669.9c0-9-7.3-16.3-16.3-16.3h-99c-9 0-16.3 7.3-16.3 16.3s7.3 16.3 16.3 16.3h33.2v42.2h-79.2c-6.8-39.2-19.5-69.3-36-86.8 43.8-38.6 68.7-144.5 72.3-252.6h118.6c3.6 108.1 28.4 214 72.3 252.6-16.5 17.5-29.3 47.6-36 86.8h-79.2v-42.2h33.2c8.8 0 16.1-7.3 16.1-16.3zm86.5-53.6c-10.4-9.4-22.3-28-33.1-59.2-15.6-44.8-25.1-104-27.3-168.1h60.4v227.3zM592.1 388.9c-2.2 64.2-11.7 123.3-27.3 168.1-10.9 31.3-22.7 49.8-33.1 59.2V388.9h60.4zm-60.4 278.3c8.7 11 17.9 31.1 23.7 61.2h-23.7v-61.2zm281.1 61.2c5.8-30.1 15-50.1 23.7-61.2v61.2h-23.7zM370.3 504.8h-147c-9 0-16.3 7.3-16.3 16.3v223.6c0 9 7.3 16.3 16.3 16.3h147c9 0 16.3-7.3 16.3-16.3V521.2c.1-9.1-7.2-16.4-16.3-16.4zM354 728.4H239.7V537.5H354v190.9z"/>
    <path stroke="#8c001a" fill="#8c001a" d="M973.7 836.5h-45.8v-503h34.4c5.2 0 10-2.4 13.1-6.6 3.1-4.1 4-9.5 2.6-14.4l-50.7-169.9c-2.1-6.9-8.4-11.7-15.7-11.7H88.4c-7.2 0-13.6 4.7-15.7 11.7L22.1 312.4c-1.5 4.9-.5 10.3 2.6 14.4s7.9 6.6 13.1 6.6h34.4v503H26.3c-9 0-16.3 7.3-16.3 16.3S17.3 869 26.3 869h947.3c9 0 16.3-7.3 16.3-16.3.1-8.9-7.2-16.2-16.2-16.2zm-33.4-535.8H891l-33.5-137.2h41.9l40.9 137.2zm-797.7 0l33.5-137.2h42.3l-26.1 137.2h-49.7zm109-137.1h42.6l-18.6 137.2h-50.1l26.1-137.2zm75.6 0H370l-11.2 137.2h-50.3l18.7-137.2zm75.6 0h43l-3.7 137.2h-50.4l11.1-137.2zm75.7 0h43l3.7 137.2h-50.5l3.8-137.2zm79.4 137.1l-3.7-137.2h43l11.2 137.2h-50.5zm83.2 0L630 163.6h42.8l18.6 137.2h-50.3zm83.3 0l-18.6-137.2h42.6l26.1 137.2h-50.1zm83.3 0l-26.1-137.2h42.3l33.5 137.2h-49.7zM100.6 163.6h41.9L109 300.7H59.7l40.9-137.1zm82.6 672.9v-356h227.4v356H183.2zm255.7-388.8H154.8v-58.8H439v58.8h-.1zm4.3 388.8v-356h12.1c9 0 16.3-7.3 16.3-16.3v-91.5c0-9-7.3-16.3-16.3-16.3H138.4c-9 0-16.3 7.3-16.3 16.3v91.5c0 9 7.3 16.3 16.3 16.3h12.1v356h-45.7v-503h790.5v503H443.2z"/>
</svg>
