<?xml version="1.0" standalone="no"?>
<svg version="1.0" xmlns="http://www.w3.org/2000/svg"
 width="225.000000pt" height="225.000000pt" viewBox="0 0 225.000000 225.000000"
 preserveAspectRatio="xMidYMid meet">
<g transform="translate(0.000000,225.000000) scale(0.100000,-0.100000)"
fill="#ed5454" stroke="none">
<path d="M512 2227 c-19 -20 -22 -35 -22 -105 l0 -82 -172 0 c-204 0 -240 -11
-289 -88 l-29 -46 0 -883 c0 -795 2 -887 16 -916 23 -45 44 -66 86 -88 36 -18
75 -19 1023 -19 948 0 987 1 1023 19 42 22 63 43 86 88 14 29 16 120 16 909 0
874 0 878 -21 922 -13 26 -38 54 -62 70 -40 26 -44 27 -224 30 l-183 3 0 83
c0 73 -3 85 -23 104 -30 28 -78 29 -103 1 -15 -16 -20 -40 -23 -105 l-3 -84
-204 0 -204 0 0 79 c0 96 -20 131 -75 131 -55 0 -75 -35 -75 -131 l0 -79 -204
0 -204 0 -3 86 c-4 76 -7 88 -28 105 -32 26 -73 24 -99 -4z m-22 -406 c0 -95
4 -107 42 -127 24 -12 33 -13 55 -2 39 19 53 53 53 136 l0 72 205 0 205 0 0
-79 c0 -69 3 -84 23 -107 31 -36 73 -36 104 0 20 23 23 38 23 107 l0 79 205 0
205 0 0 -72 c0 -83 14 -117 53 -136 22 -11 31 -10 55 2 38 20 42 32 42 127 l0
79 155 0 c142 0 157 -2 175 -20 20 -20 20 -33 20 -860 0 -827 0 -840 -20 -860
-20 -20 -33 -20 -965 -20 -932 0 -945 0 -965 20 -20 20 -20 33 -20 860 0 827
0 840 20 860 18 18 33 20 175 20 l155 0 0 -79z"/>
<path d="M490 1300 l0 -111 143 3 142 3 3 108 3 107 -146 0 -145 0 0 -110z"/>
<path d="M980 1300 l0 -110 145 0 145 0 0 110 0 110 -145 0 -145 0 0 -110z"/>
<path d="M1472 1303 l3 -108 143 -3 142 -3 0 111 0 110 -145 0 -146 0 3 -107z"/>
<path d="M490 950 l0 -110 145 0 146 0 -3 108 -3 107 -142 3 -143 3 0 -111z"/>
<path d="M980 950 l0 -110 145 0 145 0 0 110 0 110 -145 0 -145 0 0 -110z"/>
<path d="M1477 1053 c-4 -3 -7 -53 -7 -110 l0 -103 145 0 145 0 0 110 0 110
-138 0 c-76 0 -142 -3 -145 -7z"/>
<path d="M490 600 l0 -110 145 0 146 0 -3 108 -3 107 -142 3 -143 3 0 -111z"/>
<path d="M987 704 c-4 -4 -7 -54 -7 -111 l0 -103 145 0 146 0 -3 108 -3 107
-136 3 c-74 1 -138 -1 -142 -4z"/>
<path d="M1477 703 c-4 -3 -7 -53 -7 -110 l0 -103 145 0 145 0 0 110 0 110
-138 0 c-76 0 -142 -3 -145 -7z"/>
</g>
</svg>
