<?xml version="1.0" standalone="no"?>
<svg version="1.0" xmlns="http://www.w3.org/2000/svg"
 width="512.000000pt" height="512.000000pt" viewBox="0 0 512.000000 512.000000"
 preserveAspectRatio="xMidYMid meet">
<g transform="translate(0.000000,512.000000) scale(0.100000,-0.100000)"
fill="none" stroke="black" stroke-width="450">
<path d="M2304 4673 c-12 -2 -36 -19 -54 -38 -39 -40 -49 -84 -50 -217 l0 -98
-176 0 -175 0 3 -145 c3 -135 5 -146 26 -167 l23 -23 637 -3 c350 -2 669 0
709 3 109 10 107 7 108 181 l0 149 -171 3 -171 2 -7 123 c-8 134 -22 177 -69
211 -27 20 -42 21 -320 22 -161 1 -301 0 -313 -3z"/>
<path d="M1002 2521 l3 -1796 26 -55 c31 -66 93 -130 157 -161 l47 -24 1362
-3 1363 -3 54 26 c59 28 133 101 164 161 19 38 20 78 27 1840 4 991 3 1804 -2
1806 -4 3 -161 2 -348 -1 l-340 -6 -6 -150 c-3 -82 -9 -161 -13 -175 -14 -42
-54 -88 -104 -117 l-47 -28 -745 0 -745 0 -37 23 c-52 32 -96 85 -107 129 -5
21 -12 101 -15 177 -3 77 -7 140 -9 142 -1 1 -156 4 -345 6 l-343 4 3 -1795z
m2308 417 c57 -30 82 -65 87 -125 5 -45 2 -53 -34 -98 -39 -50 -912 -913 -937
-927 -15 -9 -445 420 -491 489 -23 36 -27 50 -22 85 15 109 136 172 226 117
19 -12 90 -75 158 -141 l122 -121 308 299 c404 393 434 421 463 433 40 16 73
13 120 -11z"/>
</g>
</svg>
