<?xml version="1.0" standalone="no"?>
<svg version="1.0" xmlns="http://www.w3.org/2000/svg"
 width="683.000000pt" height="683.000000pt" viewBox="0 0 683.000000 683.000000"
 preserveAspectRatio="xMidYMid meet">
<g transform="translate(0.000000,683.000000) scale(0.100000,-0.100000)"
fill="none" stroke="#000000" stroke-width="800">
<path d="M3386 6135 c-73 -38 -1860 -1460 -2216 -1763 l-34 -29 -7 -144 c-4
-79 -8 -806 -8 -1614 l-1 -1471 23 -44 c42 -82 47 -84 315 -93 130 -4 435 -6
677 -4 510 5 508 5 567 82 l38 50 0 973 0 972 730 0 730 0 0 -970 0 -970 35
-48 c44 -61 68 -72 185 -83 113 -10 590 -10 1000 0 315 8 344 12 370 62 26 48
31 332 28 1779 -2 1192 -6 1500 -16 1517 -16 29 -189 168 -757 609 -750 583
-1449 1115 -1542 1174 -53 34 -75 37 -117 15z"/>
</g>
</svg>
