<svg xmlns="http://www.w3.org/2000/svg" viewBox="0 0 412.923 412.923">
    <path stroke="#ecb84c" fill="#ecb84c" d="M410.922 158.857c-2.096-3.86-5.57-6.675-9.782-7.923L59.895 49.775c-1.523-.451-3.097-.681-4.676-.681-7.228 0-13.71 4.843-15.765 11.776L.679 191.668c-2.452 8.272 1.94 16.962 9.861 20.01v135.703c0 9.068 7.378 16.447 16.447 16.447h355.924c9.069 0 16.447-7.379 16.447-16.447V214.819l12.877-43.44c1.251-4.214.784-8.661-1.313-12.522zm-23.563 188.524c0 2.452-1.995 4.447-4.447 4.447h-91.604v-7.158c0-3.313-2.686-6-6-6s-6 2.687-6 6v7.158H26.987c-2.452 0-4.447-1.995-4.447-4.447V215.304l55.476 16.445-3.883 3.883-27.129-2.972-5.618 4.549 21.588 9.581-7.542 7.543-8.044-.787c-.137-.013-.27.039-.366.139l-2.816 2.816c-.182.169-.196.455-.027.641.042.046.093.082.149.106l7 3.186c.023 1.145.469 2.282 1.341 3.155.874.872 2.011 1.319 3.155 1.342l3.194 6.991c.103.229.371.33.598.229.049-.023.095-.052.133-.09l2.816-2.834c.099-.095.149-.228.139-.365l-.788-8.027 7.549-7.55 9.582 21.589 4.549-5.619-2.971-27.129 7.405-7.406 12.466 3.695v3.28c0 1.105.896 2 2 2h15.811l45.475 13.48h-61.286c-1.104 0-2 .896-2 2v12.735c0 1.105.896 2 2 2h117.741l59.258 17.566c-.118.469-.188.958-.188 1.464v25.865c0 3.313 2.686 6 6 6s6-2.687 6-6v-23.828l61.713 18.294c1.523.452 3.098.681 4.677.681 7.227 0 13.709-4.842 15.766-11.774l13.896-46.877v92.08zm13.372-179.414l-38.772 130.799c-.557 1.876-2.309 3.186-4.261 3.186-.425 0-.851-.063-1.267-.186l-87.826-26.035 2.034-6.862c.941-3.177-.87-6.516-4.048-7.458-3.175-.94-6.516.869-7.458 4.047l-2.034 6.863-241.914-71.713c-2.351-.697-3.698-3.177-3-5.528L50.958 64.281c.556-1.876 2.308-3.187 4.26-3.187.425 0 .852.063 1.267.186l241.914 71.714-2.512 8.473c-.941 3.178.87 6.517 4.048 7.458.569.169 1.143.249 1.708.249 2.588 0 4.977-1.688 5.75-4.296l2.512-8.473 87.825 26.035c1.14.337 2.08 1.099 2.646 2.143.567 1.042.693 2.245.355 3.384z"/>
    <path stroke="#ecb84c" fill="#ecb84c" d="M281.293 211.815c-3.168-.943-6.516.868-7.458 4.047l-7.35 24.798c-.941 3.177.871 6.517 4.048 7.458.568.169 1.143.249 1.708.249 2.588 0 4.977-1.688 5.75-4.297l7.351-24.798c.94-3.177-.873-6.516-4.049-7.457zM295.995 162.218c-3.169-.941-6.516.869-7.458 4.048l-7.351 24.798c-.941 3.177.871 6.516 4.048 7.457.568.169 1.142.249 1.708.249 2.588 0 4.977-1.688 5.75-4.296l7.351-24.798c.941-3.177-.871-6.516-4.048-7.458zM58.69 114.857l5.806 5.043c-.304 1.104-.199 2.32.39 3.405s1.552 1.838 2.643 2.184l1.076 7.609c.034.249.261.424.508.39.053-.008.105-.023.153-.048l3.505-1.917c.122-.063.208-.176.237-.311l1.526-7.921 9.384-5.091 3.051 23.421 5.958-4.095 4.862-26.855 10.306-5.593c2.228-1.208 3.054-3.996 1.845-6.224-1.209-2.228-3.997-3.055-6.225-1.846l-10.306 5.594-25.166-10.56-6.679 2.765 17.975 15.322-9.374 5.089-7.489-3.042c-.128-.051-.27-.039-.39.029l-3.5 1.898c-.223.111-.317.381-.208.607.026.057.065.107.112.147zM245.265 233.118L38.41 171.797c-1.055-.311-2.172.29-2.486 1.35l-3.62 12.21c-.151.508-.093 1.056.16 1.523.253.466.681.813 1.19.963l206.856 61.32c.186.056.378.083.568.083.33 0 .658-.082.954-.242.466-.253.813-.681.964-1.189l3.619-12.21c.313-1.061-.291-2.173-1.35-2.487zM253.853 204.148L46.997 142.827c-.508-.15-1.056-.093-1.522.16-.466.253-.813.681-.963 1.189l-3.62 12.212c-.314 1.059.29 2.172 1.349 2.485l206.856 61.319c.187.056.378.083.568.083.33 0 .658-.082.954-.242.466-.253.813-.681.964-1.189l3.619-12.21c.314-1.059-.29-2.172-1.349-2.486zM262.439 175.178l-147.957-43.86c-1.058-.313-2.172.289-2.486 1.35l-3.62 12.21c-.151.508-.093 1.056.16 1.522.253.466.681.813 1.19.963l147.96 43.861c.187.056.378.083.568.083.33 0 .658-.082.954-.242.466-.253.813-.682.964-1.19l3.617-12.211c.313-1.059-.291-2.171-1.35-2.486zM266.84 162.336c.862 0 1.659-.563 1.916-1.432l3.621-12.21c.151-.509.094-1.057-.159-1.523-.253-.466-.681-.813-1.189-.964l-147.96-43.86c-1.057-.313-2.171.29-2.486 1.35l-3.62 12.21c-.151.508-.093 1.056.16 1.522.253.466.681.813 1.189.963l147.959 43.86c.19.058.381.084.569.084zM256.82 317.606H41.068c-1.105 0-2 .896-2 2v12.735c0 1.105.895 2 2 2H256.82c1.104 0 2-.895 2-2v-12.735c0-1.105-.896-2-2-2zM256.82 287.39l-215.752-.001c-.53 0-1.039.211-1.414.586s-.586.884-.586 1.414v12.736c0 1.104.895 2 2 2H256.82c1.104 0 2-.896 2-2V289.39c0-1.104-.896-2-2-2z"/>
</svg>
