<svg xmlns="http://www.w3.org/2000/svg" viewBox="0 0 1000 1000">
    <path stroke="#ecb84c" fill="#ecb84c" d="M783.16 3.27c-17.95 3.9-45.86 17.56-60.88 29.86-24.78 20.29-46.44 55.42-55.42 89.96-3.51 13.46-4.49 21.86-4.49 44.88 0 31.03 2.15 43.13 12.49 69.86 9.17 23.81 20.29 38.44 80.79 106.74 45.47 51.32 56.98 63.03 58.93 61.08 21.46-22.64 116.69-132.89 121.38-140.69 9.95-16.39 19.32-39.61 23.03-56.98 5.27-24.59 4.49-61.27-1.95-85.66-15.02-57.37-53.66-99.91-105.57-116.3-18.16-5.67-49.39-7.04-68.31-2.75zm49.95 65.18c73.18 13.85 99.52 105.57 44.88 156.69-35.12 32.78-87.81 32.78-123.33 0-19.9-18.54-29.08-39.61-29.08-66.93.01-57.37 51.53-100.3 107.53-89.76zM507.04 370.72c-21.07 6.83-29.27 13.46-29.27 23.61 0 6.44 4.88 13.46 10.93 15.61 3.51 1.37 8.2.39 19.12-3.9 8-3.32 16.39-5.85 18.73-5.85 5.85 0 15.61-10.34 15.61-16.59 0-3.12-2.34-7.41-5.66-10.93-6.83-6.64-13.46-7.22-29.46-1.95zM580.21 371.89c-7.22 7.03-6.63 16.78 1.17 23.22 5.66 4.88 7.22 5.07 27.51 5.07 21.07 0 21.46 0 27.12-5.66 3.12-3.12 5.66-7.61 5.66-9.95 0-5.66-5.07-14.83-8.78-16.39-1.76-.59-13.27-1.17-25.56-1.17-21.26 0-22.63.19-27.12 4.88zM679.73 371.89c-6.83 6.63-6.44 15.22.78 22.64 5.66 5.66 6.05 5.66 27.51 5.66 21.47 0 21.86 0 27.51-5.66 7.22-7.42 7.61-16 .78-22.64-4.49-4.68-5.85-4.88-28.29-4.88-22.43 0-23.8.19-28.29 4.88zM185.65 417.74c-52.3 6.63-104.2 40.39-136.6 88.79-52.1 77.66-52.1 189.28.2 266.75 9.37 14.25 155.13 181.09 159.23 182.65 1.95.78 144.01-159.43 156.69-176.99 27.32-37.27 42.34-86.45 42.34-138.54 0-41.96-7.61-76.3-24.59-109.86-21.84-43.33-61.46-81.96-101.85-99.14-28.29-12.1-65.37-17.36-95.42-13.66zm50.34 102.65c24.98 7.42 49.96 27.32 60.88 48.59 10.54 21.27 14.25 48.78 8.98 71.23-10.34 45.27-56.39 78.84-103.42 75.32-45.66-3.32-81.57-35.32-91.13-81.37-9.76-47.22 18.54-95.62 65.76-112.2 15.81-5.67 42.54-6.45 58.93-1.57zM453.18 433.35c-7.81 3.12-10.54 9.56-10.54 24.98 0 7.81.98 18.15 2.15 23.03 3.9 15.42 17.56 21.08 28.29 11.9 5.85-5.07 5.85-6.24 3.32-33.95-1.17-14.05-2.54-18.93-5.46-21.85-4.88-4.69-12.3-6.45-17.76-4.11zM496.31 515.9c-6.83 5.66-7.81 16.39-2.15 22.64 5.27 5.85 20.68 10.15 37.47 10.54 13.85.39 15.02 0 19.51-5.07 9.36-10.94 3.12-26.75-10.54-26.75-3.9-.19-11.12-.98-16-2.15-20.69-4.48-22.44-4.48-28.29.79zM595.43 520.19c-5.07 3.51-7.22 12.29-4.68 19.12 3.51 8.98 11.71 11.51 34.34 10.73 18.15-.59 20.68-.98 25.17-5.27 6.24-5.85 6.63-15.22.98-22.44-3.9-5.08-4.49-5.08-27.91-5.08-17.94.01-24.77.79-27.9 2.94zM694.37 521.17c-5.46 5.46-6.64 12.29-3.12 19.32 4.29 8 13.66 10.54 35.71 9.76 15.61-.78 18.54-1.37 22.83-5.46 6.63-6.25 7.02-17.17.58-23.22-4.1-3.9-6.64-4.29-28.29-4.29-21.08-.02-24.2.37-27.71 3.89zM794.47 521.56c-5.85 6.63-6.63 10.73-3.71 17.95 1.75 4.49 4.68 7.22 8.98 8.78 8.98 3.12 37.66 2.73 45.66-.58 7.81-3.32 11.9-12.29 8.78-20.1-3.51-9.17-6.83-10.15-32.2-10.34-22.04-.01-23.8.19-27.51 4.29zM893.99 521.56c-4.68 5.07-5.85 14.83-2.54 20.88 2.15 4.1 9.17 7.02 20.49 8.98 4.1.78 11.12 3.12 15.22 5.07 12.1 6.24 22.64 1.95 25.76-10.15 3.32-13.46-16.2-26.73-41.96-28.69-11.5-.78-13.06-.39-16.97 3.91zM962.88 584c-4.68 4.1-5.07 6.25-5.85 22.05-.58 9.56-1.36 19.32-2.15 21.46-.58 2.34.58 6.44 2.73 10.15 7.61 12.29 24.78 9.56 29.86-4.68 1.37-4.1 2.54-15.61 2.54-25.56 0-17.56-.19-18.54-5.46-23.03-6.84-5.85-15.23-6.05-21.67-.39zM920.73 662.05c-2.73.98-10.93 2.73-18.15 3.51-9.76 1.17-14.64 2.73-18.15 6.05-5.85 5.46-6.25 15.02-.59 22.05 3.51 4.49 5.27 5.07 17.17 5.07 15.42 0 32.59-4.49 38.83-10.34 2.73-2.54 4.29-6.25 4.29-10.54 0-9.17-2.73-13.46-9.95-16-7.21-2.53-7.21-2.53-13.45.2zM587.63 669.28c-7.61 4.68-9.95 13.07-5.66 21.27 1.56 3.12 4.49 6.25 6.05 7.03 1.76.58 13.46 1.17 26.15 1.17 21.46 0 23.22-.19 27.12-4.49 2.73-2.93 4.29-7.02 4.29-11.32-.19-13.46-7.22-17.37-32.59-17.37-15.41 0-20.29.78-25.36 3.71zM688.32 668.49c-5.66 3.12-10.15 12.88-8.2 18.15.59 1.76 2.93 5.27 5.07 7.61 3.71 4.1 5.66 4.49 27.71 4.49s24-.39 27.71-4.49c2.15-2.34 4.49-5.85 5.07-7.61 1.95-5.46-2.54-15.22-8.58-18.15-7.41-3.9-41.56-3.9-48.78 0zM789.01 667.91c-9.95 5.27-12.1 19.12-4.29 26.54 4.1 3.9 6.63 4.29 27.51 4.29 12.49 0 24.39-.78 26.34-1.95 1.95-.98 4.68-4.49 6.05-7.81 3.12-7.61-.19-16.59-8-20.49-6.63-3.51-41.56-3.9-47.61-.58zM529.67 700.89c-6.05 4.88-16 23.42-18.54 35.13-3.32 15.02 4.1 24.59 18.15 23.61 5.46-.39 12.49-7.81 13.85-14.83.78-3.32 3.9-10.73 7.03-16.2 7.02-12.68 7.22-20.68.78-26.93-5.85-6.05-14.24-6.25-21.27-.78zM538.26 789.87c-6.83 2.54-11.71 9.17-11.71 16.2 0 5.85 1.56 8.59 10.34 16.98 10.34 10.15 26.54 20.1 32.78 20.1 1.75 0 6.05-2.34 9.37-5.07 9.76-8.2 7.81-21.08-3.9-27.32-3.32-1.76-9.76-6.44-14.25-10.34-11.7-10.94-16.19-12.89-22.63-10.55zM627.05 818.16c-9.95 5.66-11.9 18.15-3.9 25.95 4.49 4.68 5.85 4.88 27.71 4.88 24-.19 27.12-.98 31.42-9.17 3.71-6.83 2.73-12.29-3.32-18.34-5.66-5.66-6.05-5.66-26.93-5.66-12.11 0-22.64.98-24.98 2.34zM723.44 821.48c-7.22 7.42-7.61 16-.78 22.64 4.49 4.68 5.85 4.88 28.29 4.88 22.44 0 23.81-.19 28.29-4.88 6.83-6.64 6.44-15.22-.78-22.64-5.66-5.66-6.05-5.66-27.51-5.66s-21.85 0-27.51 5.66zM824.53 825.77c-4.88 2.73-8.78 12.49-7.61 18.54.58 3.12 4.88 8 11.9 12.88 6.05 4.49 13.07 10.54 15.81 13.66 7.02 8 17.17 9.37 24.39 2.93 12.1-10.34 5.27-25.56-18.34-41.95-12.3-8.2-19.52-9.96-26.15-6.06zM862.77 911.05c-2.54 1.76-5.66 7.42-7.02 12.29-1.56 4.88-5.08 12.29-8 16.59-9.95 14.83-4.49 30.05 10.93 30.05 5.66 0 8.2-1.37 13.27-7.22 7.42-8.39 15.03-24.59 16.78-35.71 1.17-6.83.59-8.39-4.68-13.66-6.84-6.64-14.64-7.61-21.28-2.34zM257.07 971.74c-3.32 3.51-5.66 7.8-5.66 10.93 0 3.12 2.34 7.41 5.66 10.93 5.66 5.66 6.05 5.66 28.49 5.66 21.47 0 22.83-.19 27.32-4.88 6.63-6.44 6.63-16.98 0-23.42-4.49-4.68-5.85-4.88-27.32-4.88-22.44 0-22.83 0-28.49 5.66zM357.56 970.76c-4.1 3.51-5.46 6.24-5.46 11.9s1.37 8.39 5.46 11.9c4.88 4.29 7.03 4.68 27.71 4.68 21.27 0 22.64-.19 27.12-4.88 6.63-6.44 6.63-16.98 0-23.42-4.49-4.68-5.85-4.88-27.12-4.88-20.68.02-22.83.41-27.71 4.7zM457.47 970.17c-7.03 5.47-7.22 17.37-.2 24.2 4.49 4.68 5.85 4.88 27.12 4.88 20.68 0 22.83-.39 27.71-4.68 4.1-3.51 5.46-6.24 5.46-11.9s-1.37-8.39-5.46-11.9c-4.88-4.29-7.03-4.68-27.32-4.68-19.31-.01-22.82.57-27.31 4.08zM556.8 970.96c-3.32 3.12-4.88 6.83-4.88 11.71 0 4.88 1.56 8.59 4.88 11.71 4.49 4.68 5.85 4.88 27.32 4.88 22.44 0 22.83 0 28.49-5.66 3.32-3.51 5.66-7.81 5.66-10.93s-2.34-7.42-5.66-10.93c-5.66-5.66-6.05-5.66-28.49-5.66-21.47 0-22.84.19-27.32 4.88zM656.32 970.96c-4.88 4.68-6.25 12.68-3.71 19.51 2.54 6.44 11.51 8.78 32.98 8.78 20.29 0 20.88-.19 26.54-5.66 6.05-6.05 7.03-10.73 3.51-18.34-3.32-7.42-9.76-9.17-33.17-9.17-20.1 0-21.67.19-26.15 4.88zM756.03 971.15c-5.46 5.66-6.44 11.51-2.93 18.93 3.32 7.42 9.76 9.17 32.2 9.17 20.1 0 20.69-.19 26.34-5.66 3.32-3.51 5.66-7.81 5.66-10.93s-2.34-7.42-5.66-10.93c-5.66-5.66-6.05-5.66-28.1-5.66-21.46.01-22.43.2-27.51 5.08z"/>
</svg>
