<?xml version="1.0" encoding="UTF-8"?>
<svg width="16px" height="16px" viewBox="0 0 16 16" version="1.1" xmlns="http://www.w3.org/2000/svg" xmlns:xlink="http://www.w3.org/1999/xlink">
    <!-- Generator: Sketch 48.2 (47327) - http://www.bohemiancoding.com/sketch -->
    <title>Ico/4</title>
    <desc>Created with Sketch.</desc>
    <defs></defs>
    <g id="Symbols" stroke="none" stroke-width="1" fill="none" fill-rule="evenodd" stroke-linecap="round" stroke-linejoin="round">
        <g id="Ico/4" stroke="#A8B2B9" stroke-width="2">
            <g id="Group" transform="translate(1.000000, 0.000000)">
                <path d="M4,7.94328553 L5,7.94328553" id="Stroke-86"></path>
                <path d="M9,7.94328553 L10,7.94328553" id="Stroke-87"></path>
                <path d="M4,10.9413299 L5,10.9413299" id="Stroke-88"></path>
                <path d="M9,10.9413299 L10,10.9413299" id="Stroke-89"></path>
                <path d="M3,4.9452412 L3,0.947848761" id="Stroke-90"></path>
                <path d="M11,4.9452412 L11,0.947848761" id="Stroke-91"></path>
                <path d="M13,14.9387223 L1,14.9387223 C0.447,14.9387223 0,14.4910143 0,13.9393742 L0,3.94589309 C0,3.39425293 0.447,2.94654498 1,2.94654498 L13,2.94654498 C13.553,2.94654498 14,3.39425293 14,3.94589309 L14,13.9393742 C14,14.4910143 13.553,14.9387223 13,14.9387223 Z" id="Stroke-92"></path>
            </g>
        </g>
    </g>
</svg>