<svg xmlns="http://www.w3.org/2000/svg"><path d="M25.1 23.44a4.32 4.32 0 0 1-4.86 3.68 5.87 5.87 0 0 1-2.23-.76 14.1 14.1 0 0 1-3.3-2.82c1.9-2.35 3.09-4.5 3.53-6.43.2-.88.24-1.71.12-2.48a4.75 4.75 0 0 0-.77-1.98 4.92 4.92 0 0 0-4.09-2.07c-1.68 0-3.2.78-4.1 2.07-.4.58-.65 1.25-.76 1.98a6.6 6.6 0 0 0 .12 2.48c.44 1.92 1.63 4.08 3.52 6.43a13.42 13.42 0 0 1-3.3 2.82 6 6 0 0 1-2.21.76 4.32 4.32 0 0 1-4.61-5.91c.1-.3.22-.59.37-.93l.66-1.44.02-.06c2-4.33 4.14-8.72 6.37-13.05l.1-.17c.22-.44.45-.9.7-1.34.24-.46.48-.9.81-1.28a2.98 2.98 0 0 1 4.62 0c.33.38.57.82.82 1.28l.7 1.32.09.19a332.8 332.8 0 0 1 6.37 13.05l.01.04a95.4 95.4 0 0 1 1.05 2.38c.28.8.36 1.5.25 2.24M13.5 22.1c-1.57-2-2.58-3.84-2.93-5.4a4.78 4.78 0 0 1-.1-1.78c.07-.45.22-.86.46-1.21a3.07 3.07 0 0 1 2.57-1.26 3.1 3.1 0 0 1 2.57 1.26c.24.35.4.76.46 1.21.08.53.05 1.13-.1 1.79-.35 1.55-1.36 3.4-2.93 5.4m13.1-1.52l-.43-1.04-.68-1.5-.02-.04c-2-4.35-4.16-8.77-6.4-13.12l-.1-.18-.71-1.36a8.8 8.8 0 0 0-1.04-1.6 4.83 4.83 0 0 0-7.44 0 8.84 8.84 0 0 0-1.04 1.6l-.72 1.37-.08.17C5.69 9.23 3.54 13.65 1.54 18l-.04.07-.67 1.47c-.14.32-.3.68-.42 1.04a6.18 6.18 0 0 0 6.57 8.37 7.79 7.79 0 0 0 2.91-.98 14.85 14.85 0 0 0 3.61-3.02 14.85 14.85 0 0 0 3.6 3.02A7.78 7.78 0 0 0 20.8 29a6.18 6.18 0 0 0 5.8-8.42z" fill="red"/></svg>