<svg xmlns="http://www.w3.org/2000/svg" viewBox="0 0 1000 1000">
    <path stroke="#089bd9" fill="#089bd9" d="M665.8 143.7c-33.5 0-65.8 4.3-96.2 12.2-50.6-19.8-107-31-166.6-31-216.7 0-393 147.2-393 328.1 0 96 49.3 185.7 135.7 248.1v174L326 774.8c25.5 4.2 51.3 6.4 77 6.4 107.4 0 204.9-36.2 275.9-94.7 16.2-.5 32.5-2.1 48.6-4.7l152.3 84.8V619.3C950 567.7 990 494 990 415.2c0-149.7-145.4-271.5-324.2-271.5zM403 728.3c-25.6 0-51.4-2.4-76.8-7.2l-9.4-1.8-118.3 65.8v-112l-11.7-7.8c-78.8-52.6-124-130-124-212.3 0-151.8 152.6-275.3 340.1-275.3 30.3 0 59.6 3.3 87.5 9.3-89.5 48.4-148.9 132.6-148.9 228.2 0 129.3 108.5 237.7 253.3 264.9-54.5 30.4-120.6 48.2-191.8 48.2zm435.7-144.8l-11.7 7.8v85.2l-90.3-50.2h-.2l-9.2 1.7c-20.3 3.8-40.9 5.7-61.4 5.7-2.2 0-4.4-.1-6.6-.1-146.6-2.8-264.7-99.7-264.7-218.5 0-92.3 71.5-171.4 172.1-203.4 25.6-8.1 53.2-13.2 81.9-14.7 5.7-.3 11.5-.5 17.3-.5 149.6 0 271.3 98.1 271.3 218.6-.1 65.3-36 126.6-98.5 168.4z"/>
</svg>
